<?xml version="1.0" standalone="no"?>
<!DOCTYPE svg PUBLIC "-//W3C//DTD SVG 20010904//EN"
 "http://www.w3.org/TR/2001/REC-SVG-20010904/DTD/svg10.dtd">
<svg version="1.0" xmlns="http://www.w3.org/2000/svg"
 width="1600.000000pt" height="1600.000000pt" viewBox="0 0 1600.000000 1600.000000"
 preserveAspectRatio="xMidYMid meet">
<metadata>
Created by potrace 1.14, written by Peter Selinger 2001-2017
</metadata>
<g transform="translate(0.000000,1600.000000) scale(0.100000,-0.100000)"
fill="#000000" stroke="none">
<path d="M1800 12135 l0 -2065 2065 0 2065 0 0 2065 0 2065 -2065 0 -2065 0 0
-2065z m3540 0 l0 -1475 -1475 0 -1475 0 0 1475 0 1475 1475 0 1475 0 0 -1475z"/>
<path d="M2980 12135 l0 -885 885 0 885 0 0 885 0 885 -885 0 -885 0 0 -885z"/>
<path d="M6520 13610 l0 -590 295 0 295 0 0 -590 0 -590 -295 0 -295 0 0
-2360 0 -2360 -885 0 -885 0 0 -295 0 -295 885 0 885 0 0 -295 0 -295 295 0
295 0 0 -295 0 -295 -295 0 -295 0 0 -295 0 -295 295 0 295 0 0 -590 0 -590
-295 0 -295 0 0 -885 0 -885 885 0 885 0 0 295 0 295 -295 0 -295 0 0 295 0
295 -295 0 -295 0 0 295 0 295 590 0 590 0 0 295 0 295 1475 0 1475 0 0 -295
0 -295 -590 0 -590 0 0 -295 0 -295 295 0 295 0 0 -295 0 -295 -295 0 -295 0
0 -295 0 -295 295 0 295 0 0 295 0 295 590 0 590 0 0 -295 0 -295 295 0 295 0
0 590 0 590 885 0 885 0 0 295 0 295 -590 0 -590 0 0 295 0 295 295 0 295 0 0
295 0 295 -295 0 -295 0 0 -295 0 -295 -295 0 -295 0 0 590 0 590 295 0 295 0
0 590 0 590 295 0 295 0 0 295 0 295 -295 0 -295 0 0 -295 0 -295 -295 0 -295
0 0 590 0 590 295 0 295 0 0 295 0 295 -295 0 -295 0 0 295 0 295 -295 0 -295
0 0 295 0 295 -1475 0 -1475 0 0 295 0 295 295 0 295 0 0 295 0 295 -295 0
-295 0 0 -295 0 -295 -295 0 -295 0 0 590 0 590 -295 0 -295 0 0 -590 0 -590
-295 0 -295 0 0 885 0 885 295 0 295 0 0 295 0 295 295 0 295 0 0 -295 0 -295
295 0 295 0 0 -295 0 -295 295 0 295 0 0 590 0 590 -295 0 -295 0 0 295 0 295
295 0 295 0 0 590 0 590 -1475 0 -1475 0 0 -590z m1770 -295 l0 -295 -295 0
-295 0 0 295 0 295 295 0 295 0 0 -295z m1770 -5015 l0 -590 590 0 590 0 0
-295 0 -295 295 0 295 0 0 -295 0 -295 -295 0 -295 0 0 295 0 295 -885 0 -885
0 0 -590 0 -590 -295 0 -295 0 0 295 0 295 -295 0 -295 0 0 -295 0 -295 -590
0 -590 0 0 295 0 295 295 0 295 0 0 295 0 295 -295 0 -295 0 0 590 0 590 590
0 590 0 0 295 0 295 885 0 885 0 0 -590z m1180 295 l0 -295 -295 0 -295 0 0
295 0 295 295 0 295 0 0 -295z m1180 -590 l0 -295 -295 0 -295 0 0 295 0 295
295 0 295 0 0 -295z m-1770 -2360 l0 -295 590 0 590 0 0 -295 0 -295 -590 0
-590 0 0 295 0 295 -295 0 -295 0 0 295 0 295 295 0 295 0 0 -295z m-2950
-590 l0 -295 -295 0 -295 0 0 295 0 295 295 0 295 0 0 -295z m1770 0 l0 -295
-295 0 -295 0 0 295 0 295 295 0 295 0 0 -295z"/>
<path d="M8880 7415 l0 -295 295 0 295 0 0 295 0 295 -295 0 -295 0 0 -295z"/>
<path d="M10060 12135 l0 -2065 2065 0 2065 0 0 2065 0 2065 -2065 0 -2065 0
0 -2065z m3540 0 l0 -1475 -1475 0 -1475 0 0 1475 0 1475 1475 0 1475 0 0
-1475z"/>
<path d="M11240 12135 l0 -885 885 0 885 0 0 885 0 885 -885 0 -885 0 0 -885z"/>
<path d="M1800 8890 l0 -590 295 0 295 0 0 295 0 295 590 0 590 0 0 -885 0
-885 -590 0 -590 0 0 295 0 295 -295 0 -295 0 0 -590 0 -590 1180 0 1180 0 0
590 0 590 885 0 885 0 0 295 0 295 -590 0 -590 0 0 295 0 295 590 0 590 0 0
295 0 295 -590 0 -590 0 0 -295 0 -295 -590 0 -590 0 0 295 0 295 -885 0 -885
0 0 -590z"/>
<path d="M13010 9185 l0 -295 295 0 295 0 0 -590 0 -590 295 0 295 0 0 885 0
885 -590 0 -590 0 0 -295z"/>
<path d="M1800 3875 l0 -2065 2065 0 2065 0 0 2065 0 2065 -2065 0 -2065 0 0
-2065z m3540 0 l0 -1475 -1475 0 -1475 0 0 1475 0 1475 1475 0 1475 0 0 -1475z"/>
<path d="M2980 3875 l0 -885 885 0 885 0 0 885 0 885 -885 0 -885 0 0 -885z"/>
<path d="M13600 5645 l0 -295 295 0 295 0 0 295 0 295 -295 0 -295 0 0 -295z"/>
<path d="M8880 2695 l0 -295 295 0 295 0 0 295 0 295 -295 0 -295 0 0 -295z"/>
<path d="M13600 2105 l0 -295 295 0 295 0 0 295 0 295 -295 0 -295 0 0 -295z"/>
</g>
</svg>
